<svg width="48" height="51" viewBox="0 0 48 51" fill="none" xmlns="http://www.w3.org/2000/svg">
<path d="M42.2419 32.6675C40.6144 29.7281 39.7501 25.5091 39.7501 20.475C39.75 16.089 38.0907 11.8826 35.137 8.78122C32.1833 5.67984 28.1772 3.9375 24.0001 3.9375C19.8229 3.9375 15.8168 5.67984 12.8631 8.78122C9.90942 11.8826 8.25005 16.089 8.25005 20.475C8.25005 25.5111 7.38943 29.7281 5.76193 32.6675C5.42983 33.267 5.25379 33.9477 5.25149 34.6413C5.24918 35.3348 5.4207 36.0168 5.7488 36.6188C6.07483 37.221 6.54805 37.721 7.11959 38.0671C7.69114 38.4132 8.3403 38.5928 9.00005 38.5875H15.7838C15.9699 40.7406 16.9159 42.7428 18.4362 44.2008C19.9565 45.6588 21.9411 46.4673 24.0001 46.4673C26.059 46.4673 28.0436 45.6588 29.5639 44.2008C31.0842 42.7428 32.0303 40.7406 32.2163 38.5875H39.0001C39.6589 38.5918 40.3069 38.4116 40.8773 38.0656C41.4478 37.7196 41.9201 37.2201 42.2457 36.6188C42.5752 36.0177 42.7483 35.3361 42.7477 34.6426C42.747 33.949 42.5726 33.2679 42.2419 32.6675ZM24.0001 41.7375C23.1356 41.7377 22.2976 41.4243 21.6279 40.8502C20.9582 40.2762 20.498 39.4769 20.3251 38.5875H27.6751C27.5022 39.4769 27.0419 40.2762 26.3722 40.8502C25.7025 41.4243 24.8645 41.7377 24.0001 41.7375ZM10.2488 33.8625C11.9082 30.3188 12.7501 25.8182 12.7501 20.475C12.7501 17.3421 13.9353 14.3376 16.0451 12.1223C18.1549 9.90703 21.0164 8.6625 24.0001 8.6625C26.9837 8.6625 29.8452 9.90703 31.955 12.1223C34.0648 14.3376 35.2501 17.3421 35.2501 20.475C35.2501 25.8162 36.0901 30.3188 37.7494 33.8625H10.2488Z" fill="white"/>
</svg>
