<svg width="30" height="30" viewBox="0 0 30 30" fill="none" xmlns="http://www.w3.org/2000/svg">
<path d="M5.20371 12.2385C4.9983 13.0381 4.89468 13.8605 4.89531 14.6861C4.89531 15.5306 5.00301 16.3506 5.20371 17.1338H8.6892C8.52421 15.5062 8.52421 13.8661 8.6892 12.2385H5.20371ZM6.20481 9.79078H9.07594C9.40148 8.30137 9.87143 6.96739 10.4479 5.85737C8.67107 6.71334 7.19271 8.08381 6.20481 9.79078ZM24.1683 12.2385H20.6828C20.8478 13.8661 20.8478 15.5062 20.6828 17.1338H24.1683C24.5803 15.528 24.5803 13.8442 24.1683 12.2385ZM23.1672 9.79078C22.1793 8.08381 20.701 6.71334 18.9242 5.85737C19.5018 6.96739 19.9705 8.30137 20.2961 9.79078H23.1672ZM11.1516 12.2385C11.0599 13.0511 11.0141 13.8683 11.0145 14.6861C11.0145 15.5245 11.061 16.3444 11.1516 17.1338H18.2205C18.4048 15.5072 18.4048 13.865 18.2205 12.2385H11.1516ZM11.5897 9.79078H17.7823C17.5596 8.87082 17.2383 7.97756 16.8241 7.12649C16.0555 5.59057 15.2331 4.89543 14.686 4.89543C14.1377 4.89543 13.3165 5.59057 12.548 7.12649C12.1625 7.89995 11.8381 8.79947 11.5897 9.79078ZM6.20481 19.5815C7.19271 21.2885 8.67107 22.6589 10.4479 23.5149C9.87021 22.4049 9.40148 21.0709 9.07594 19.5815H6.20481ZM23.1672 19.5815H20.2961C19.9705 21.0709 19.5006 22.4049 18.9242 23.5149C20.701 22.6589 22.1793 21.2885 23.1672 19.5815ZM11.5897 19.5815C11.8381 20.5728 12.1625 21.4723 12.548 22.2458C13.3165 23.7817 14.139 24.4768 14.686 24.4768C15.2343 24.4768 16.0555 23.7817 16.8241 22.2458C17.2096 21.4723 17.5339 20.5728 17.7823 19.5815H11.5897ZM14.686 26.9245C7.92675 26.9245 2.44763 21.4454 2.44763 14.6861C2.44763 7.92688 7.92675 2.44775 14.686 2.44775C21.4453 2.44775 26.9244 7.92688 26.9244 14.6861C26.9244 21.4454 21.4453 26.9245 14.686 26.9245Z" fill="white"/>
</svg>
