<svg width="70" height="70" viewBox="0 0 70 70" fill="none" xmlns="http://www.w3.org/2000/svg">
<circle cx="35" cy="35" r="35" fill="white"/>
<path d="M6.27 45V24H8.73L18.15 39.87H16.83L26.13 24H28.59L28.62 45H25.74L25.71 28.53H26.4L18.12 42.45H16.74L8.4 28.53H9.15V45H6.27ZM35.3067 45.18C34.7467 45.18 34.2667 44.99 33.8667 44.61C33.4667 44.21 33.2667 43.71 33.2667 43.11C33.2667 42.51 33.4667 42.02 33.8667 41.64C34.2667 41.26 34.7467 41.07 35.3067 41.07C35.8467 41.07 36.3067 41.26 36.6867 41.64C37.0867 42.02 37.2867 42.51 37.2867 43.11C37.2867 43.71 37.0867 44.21 36.6867 44.61C36.3067 44.99 35.8467 45.18 35.3067 45.18ZM50.7577 45.24C49.1577 45.24 47.6777 44.98 46.3177 44.46C44.9777 43.92 43.8077 43.17 42.8077 42.21C41.8277 41.23 41.0577 40.09 40.4977 38.79C39.9377 37.49 39.6577 36.06 39.6577 34.5C39.6577 32.94 39.9377 31.51 40.4977 30.21C41.0577 28.91 41.8377 27.78 42.8377 26.82C43.8377 25.84 45.0077 25.09 46.3477 24.57C47.7077 24.03 49.1877 23.76 50.7877 23.76C52.4077 23.76 53.8977 24.04 55.2577 24.6C56.6377 25.14 57.8077 25.95 58.7677 27.03L56.8177 28.92C56.0177 28.08 55.1177 27.46 54.1177 27.06C53.1177 26.64 52.0477 26.43 50.9077 26.43C49.7277 26.43 48.6277 26.63 47.6077 27.03C46.6077 27.43 45.7377 27.99 44.9977 28.71C44.2577 29.43 43.6777 30.29 43.2577 31.29C42.8577 32.27 42.6577 33.34 42.6577 34.5C42.6577 35.66 42.8577 36.74 43.2577 37.74C43.6777 38.72 44.2577 39.57 44.9977 40.29C45.7377 41.01 46.6077 41.57 47.6077 41.97C48.6277 42.37 49.7277 42.57 50.9077 42.57C52.0477 42.57 53.1177 42.37 54.1177 41.97C55.1177 41.55 56.0177 40.91 56.8177 40.05L58.7677 41.94C57.8077 43.02 56.6377 43.84 55.2577 44.4C53.8977 44.96 52.3977 45.24 50.7577 45.24ZM63.4317 45.18C62.8717 45.18 62.3917 44.99 61.9917 44.61C61.5917 44.21 61.3917 43.71 61.3917 43.11C61.3917 42.51 61.5917 42.02 61.9917 41.64C62.3917 41.26 62.8717 41.07 63.4317 41.07C63.9717 41.07 64.4317 41.26 64.8117 41.64C65.2117 42.02 65.4117 42.51 65.4117 43.11C65.4117 43.71 65.2117 44.21 64.8117 44.61C64.4317 44.99 63.9717 45.18 63.4317 45.18Z" fill="black"/>
</svg>


