<svg width="105" height="79" viewBox="0 0 105 79" fill="none" xmlns="http://www.w3.org/2000/svg">
<path d="M69.6431 62.2242V66.3012H72.7175H75.792V65.4991V64.6971H73.5864H71.3808V63.7614V62.8257H73.1185H74.8563V62.0905V61.3553H73.1185H71.3808V60.5533V59.7513H73.5864H75.792V58.9492V58.1472H72.7175H69.6431V62.2242Z" fill="#8A2BE2"/>
<path d="M76.9951 62.2242V66.3012H77.7303H78.4655V65.0981V63.8951L78.9735 63.9085C79.4547 63.9085 79.4948 63.9619 80.23 65.1115L81.0053 66.3012H81.8741C82.5425 66.3012 82.7296 66.2611 82.6628 66.1274C82.6093 66.0472 82.1415 65.312 81.6335 64.5233L80.6978 63.0797L81.6603 61.6761L82.6227 60.2859H81.7538H80.885L80.0963 61.3821C79.4279 62.3311 79.2542 62.4915 78.8933 62.5316L78.4655 62.5717V60.3662V58.1472H77.7303H76.9951V62.2242Z" fill="#8A2BE2"/>
<path d="M90.763 59.6844C90.763 60.2592 90.7496 60.2859 90.362 60.2859C89.9743 60.2859 89.9609 60.2993 89.9609 60.9409C89.9609 61.5692 89.9877 61.6093 90.3352 61.6494L90.6961 61.6895L90.7362 63.9887L90.763 66.3012H92.4339H94.1048V65.6328V64.9778L93.2092 64.9377L92.3002 64.8976V63.2936V61.6895L93.1423 61.6494L93.9711 61.6093V60.9543V60.2859H93.1022H92.2334V59.6844V59.0829H91.4982H90.763V59.6844Z" fill="#8A2BE2"/>
<path d="M84.7076 60.2859C84.0927 60.4731 83.4645 61.0345 83.1437 61.6895C82.8095 62.3846 82.7293 63.9352 83.01 64.6303C83.4244 65.6997 84.4136 66.4215 85.4696 66.4348C86.0444 66.4348 87.1271 65.9804 87.2474 65.6863C87.3677 65.3521 87.5548 65.4858 87.5548 65.9002C87.5548 66.3012 87.5682 66.3012 88.29 66.3012H89.0252V63.2936V60.2859H88.29C87.5682 60.2859 87.5548 60.2859 87.5548 60.687C87.5548 61.1548 87.4212 61.1949 87.0736 60.8073C86.5657 60.2325 85.6032 60.0186 84.7076 60.2859ZM86.7127 61.7563C87.3811 62.1573 87.6351 62.8925 87.4212 63.8282C87.2073 64.7773 86.2582 65.312 85.3894 64.9778C84.2532 64.5367 84.1596 62.291 85.2557 61.7029C85.7503 61.4222 86.2048 61.4355 86.7127 61.7563Z" fill="#8A2BE2"/>
<path d="M67.2368 44.8469V49.0575H68.8409H70.4449V48.1887V47.3198H69.7097H68.9745V43.978V40.6362H68.1057H67.2368V44.8469Z" fill="#ECECEC"/>
<path d="M71.3809 44.8469V49.0575H72.9849H74.589V48.1887V47.3198H73.9206H73.2523V43.978V40.6362H72.3166H71.3809V44.8469Z" fill="#ECECEC"/>
<path d="M53.4019 42.4274C50.822 43.6171 50.8755 47.6673 53.4687 48.8303C54.3376 49.2313 55.6743 49.2046 56.4897 48.7768C57.2115 48.4025 57.8264 47.7074 58.0804 46.9722L58.2542 46.4509L57.3853 46.4108C56.5164 46.3707 56.4897 46.3841 56.1154 46.8386C54.8322 48.4025 52.68 46.6113 53.589 44.7399C53.7494 44.4191 54.0168 44.0716 54.2039 43.978C54.9257 43.5904 55.8748 43.8577 56.2223 44.5394C56.4095 44.9003 56.463 44.9137 57.3586 44.9137C58.2675 44.9137 58.2943 44.9003 58.2141 44.6063C57.8799 43.5235 56.9442 42.4942 56.0619 42.2536C55.1797 42.013 54.1371 42.0799 53.4019 42.4274Z" fill="#ECECEC"/>
<path d="M61.3019 42.2403C60.3261 42.5343 59.3904 43.5369 59.0963 44.5929C58.6285 46.2638 59.4171 48.0817 60.9143 48.8036C61.7698 49.2179 63.1733 49.2179 64.0689 48.7902C66.7691 47.5069 66.582 43.2963 63.7748 42.2937C63.2268 42.0932 61.8901 42.0665 61.3019 42.2403ZM63.1065 43.9379C64.363 44.4325 64.51 46.4643 63.3337 47.1861C63.0931 47.3332 62.7188 47.4535 62.4916 47.4535C61.6361 47.4535 60.8207 46.5846 60.8207 45.6623C60.8207 45.1409 61.2083 44.2854 61.5425 44.0716C61.7965 43.8978 62.1173 43.7775 62.4515 43.724C62.505 43.724 62.799 43.8042 63.1065 43.9379Z" fill="#ECECEC"/>
<path d="M77.1284 42.4675C75.8051 43.1626 75.1635 44.3656 75.2971 45.9162C75.3907 47.253 76.166 48.3758 77.3289 48.8704C78.425 49.3382 80.3098 49.0575 81.1921 48.2822C81.4728 48.0283 82.208 46.9321 82.208 46.7584C82.208 46.7049 81.7802 46.6514 81.2723 46.6514C80.497 46.6514 80.2697 46.7049 80.0291 46.9321C79.2137 47.7074 77.8904 47.5738 77.3423 46.6514L77.1151 46.2504H79.6816H82.2481L82.1679 45.3815C82.0743 44.4057 81.7401 43.6706 81.1252 43.0557C80.4836 42.414 79.9623 42.2002 78.8662 42.1333C77.9572 42.0932 77.7968 42.12 77.1284 42.4675ZM79.6281 44.0582C79.7885 44.1651 79.989 44.3656 80.0692 44.5127C80.2029 44.7667 80.1761 44.78 78.7325 44.78C77.9305 44.78 77.2621 44.7266 77.2621 44.6731C77.2621 44.4726 77.8904 43.9646 78.278 43.8577C78.7191 43.724 79.2137 43.7909 79.6281 44.0582Z" fill="#ECECEC"/>
<path d="M84.7745 42.4541C82.4219 43.6304 82.4219 47.6005 84.7879 48.8169C85.4696 49.1511 86.7395 49.1912 87.4613 48.8837L87.9559 48.6699V49.2046V49.7259H85.9508H83.9458V50.5279V51.3299H86.8865H89.8273V46.7851V42.2403H88.8916C88.1831 42.2403 87.9559 42.2804 87.9559 42.4274C87.9559 42.5744 87.849 42.5611 87.4613 42.3606C86.7261 41.9863 85.6434 42.0264 84.7745 42.4541ZM87.2608 44.0181C88.2901 44.5127 88.1564 46.9188 87.0737 47.3198C86.2182 47.654 85.3894 47.2797 85.0686 46.4376C84.4136 44.7132 85.7236 43.2562 87.2608 44.0181Z" fill="#ECECEC"/>
<path d="M92.6612 42.4541C90.509 43.5235 90.108 46.6648 91.9126 48.2555C92.621 48.8704 93.2359 49.0976 94.2385 49.0976C95.6554 49.111 96.8718 48.4293 97.46 47.293C97.5936 47.0123 97.7139 46.7584 97.7139 46.7183C97.7139 46.6782 97.2996 46.6514 96.7916 46.6514C95.9896 46.6514 95.8024 46.6915 95.5084 46.9722C94.7732 47.654 93.7038 47.5871 93.0221 46.8118L92.5809 46.3172L95.1474 46.2771L97.7139 46.2504V45.6623C97.7139 43.6171 96.2436 42.1066 94.2385 42.1066C93.5568 42.1066 93.1958 42.1868 92.6612 42.4541ZM94.7063 43.8443C94.9202 43.8443 95.7089 44.4859 95.7089 44.6597C95.7089 44.7266 95.0539 44.78 94.2385 44.78C93.4364 44.78 92.7681 44.7266 92.7681 44.6731C92.7681 44.3122 93.931 43.6572 94.3454 43.7908C94.4524 43.8176 94.6128 43.8443 94.7063 43.8443Z" fill="#ECECEC"/>
<path d="M71.1534 58.1071C72.0089 58.1338 73.4258 58.1338 74.2947 58.1071C75.1502 58.0937 74.4417 58.067 72.7173 58.067C70.993 58.067 70.2845 58.0937 71.1534 58.1071Z" fill="#ECECEC"/>
<path d="M77.3691 58.1071C77.6097 58.1338 77.9706 58.1338 78.1711 58.1071C78.3716 58.0804 78.1711 58.0536 77.73 58.0536C77.2889 58.0536 77.1285 58.0804 77.3691 58.1071Z" fill="#ECECEC"/>
<path d="M91.1376 59.0428C91.3783 59.0695 91.7392 59.0695 91.9397 59.0428C92.1402 59.0161 91.9397 58.9893 91.4986 58.9893C91.0574 58.9893 90.897 59.0161 91.1376 59.0428Z" fill="#ECECEC"/>
<path d="M89.8677 60.9543C89.8677 61.3553 89.8944 61.5291 89.9211 61.3152C89.9479 61.1147 89.9479 60.7939 89.9211 60.58C89.8944 60.3795 89.8677 60.5533 89.8677 60.9543Z" fill="#ECECEC"/>
<path d="M94.0112 60.9543C94.0112 61.3553 94.038 61.5291 94.0647 61.3152C94.0914 61.1147 94.0914 60.7939 94.0647 60.58C94.038 60.3795 94.0112 60.5533 94.0112 60.9543Z" fill="#ECECEC"/>
<path d="M74.8831 62.0504L74.8564 62.8123L73.1588 62.8658L71.4478 62.9059L73.1588 62.9326C75.0836 62.9594 75.0435 62.9861 74.95 61.9435L74.9099 61.2885L74.8831 62.0504Z" fill="#ECECEC"/>
<path d="M78.7727 63.9887C78.893 64.0154 79.1069 64.0154 79.2406 63.9887C79.3609 63.9486 79.2539 63.9218 79 63.9218C78.746 63.9218 78.6391 63.9486 78.7727 63.9887Z" fill="#ECECEC"/>
<path d="M72.557 64.657C73.1585 64.6837 74.1477 64.6837 74.7626 64.657C75.3641 64.6436 74.8695 64.6169 73.6531 64.6169C72.4367 64.6169 71.9421 64.6436 72.557 64.657Z" fill="#ECECEC"/>
<path d="M6.5498 17.0431V24.5956H14.1023H21.6547V17.0431V9.49069H14.1023H6.5498V17.0431ZM18.5803 16.9763V21.3875H14.1691H9.75793V16.9763V12.5651H14.1691H18.5803V16.9763Z" fill="#ECECEC"/>
<path d="M12.5649 17.0431V18.5804H14.1022H15.6394V17.0431V15.5059H14.1022H12.5649V17.0431Z" fill="#ECECEC"/>
<path d="M51.4634 17.0431V24.5956H59.0158H66.5683V17.0431V9.49069H59.0158H51.4634V17.0431ZM63.4938 16.9763V21.3875H59.0827H54.6715V16.9763V12.5651H59.0827H63.4938V16.9763Z" fill="#ECECEC"/>
<path d="M51.4634 30.8113V31.6802H51.9312H52.3991V34.1531V36.6261H51.9312H51.4634V37.4281V38.2301H53.2679H55.0725V37.4281V36.6261H54.6715H54.2705V34.1531V31.6802H54.6715H55.0725V30.8113V29.9425H53.2679H51.4634V30.8113Z" fill="#ECECEC"/>
<path d="M56.0083 30.8113V31.6802H57.2113H58.4144V34.9552V38.2301H59.2833H60.1521V34.9552V31.6802H61.3552H62.5582V30.8113V29.9425H59.2833H56.0083V30.8113Z" fill="#ECECEC"/>
<path d="M63.6274 34.0863V38.2301H64.5631H65.4988V36.1849C65.4988 34.4071 65.5389 34.0997 65.7662 33.7254C66.2741 32.8832 67.651 32.8298 68.0252 33.6318C68.1188 33.8323 68.1723 34.7948 68.1723 36.0914V38.2301H69.1213H70.0704L70.017 35.7171C69.9768 33.3511 69.9501 33.1907 69.6427 32.6159C69.1748 31.7871 68.4931 31.4129 67.3703 31.4129C66.7687 31.4129 66.3276 31.4931 65.9934 31.6668L65.4988 31.9208V30.9316V29.9425H64.5631H63.6274V34.0863Z" fill="#ECECEC"/>
<path d="M78.5986 34.0863V38.2301H79.4675C80.1492 38.2301 80.3364 38.19 80.3364 38.0296C80.3364 37.8558 80.4166 37.8692 80.8711 38.0964C81.232 38.2836 81.6597 38.3638 82.2479 38.3638C82.9563 38.3638 83.1969 38.2969 83.8118 37.9227C84.4 37.5751 84.6139 37.3479 84.948 36.7063C85.2822 36.0245 85.3491 35.7706 85.3491 34.8883C85.3491 34.0061 85.2822 33.7521 84.948 33.0838C84.6941 32.5892 84.3465 32.1748 83.9722 31.8941C83.4777 31.5465 83.2504 31.4797 82.3949 31.4396C81.5929 31.3995 81.3122 31.4396 80.8711 31.6668L80.3364 31.9475V30.945V29.9425H79.4675H78.5986V34.0863ZM82.7558 33.3244C83.3172 33.6986 83.598 34.4472 83.4777 35.2492C83.3172 36.3721 82.3414 36.987 81.379 36.586C80.6839 36.2919 80.4032 35.7973 80.4032 34.875C80.4032 34.3002 80.4834 34.0061 80.6839 33.7254C81.2453 32.9768 82.0073 32.8164 82.7558 33.3244Z" fill="#ECECEC"/>
<path d="M71.1133 33.7922C71.1133 36.88 71.3272 37.535 72.5436 38.1499C73.1585 38.4574 74.5219 38.4306 75.1635 38.0964C75.5779 37.8692 75.6581 37.8692 75.6581 38.0296C75.6581 38.19 75.8453 38.2301 76.527 38.2301H77.3959V34.8883V31.5465H76.5404H75.6715L75.6314 33.6719L75.5913 35.8107L75.2036 36.2117C74.9898 36.4389 74.6155 36.6528 74.3749 36.7063C73.8937 36.7998 73.1986 36.5058 73.0649 36.1582C73.0248 36.0379 72.9847 34.9418 72.9847 33.7387V31.5465H72.049H71.1133V33.7922Z" fill="#ECECEC"/>
<path d="M6.5498 61.9569V69.5093H14.1023H21.6547V61.9569V54.4044H14.1023H6.5498V61.9569ZM18.5803 61.89V66.3012H14.1691H9.75793V61.89V57.4789H14.1691H18.5803V61.89Z" fill="#ECECEC"/>
<path d="M51.4634 61.9569V69.5093H74.8559H98.2485V61.9569V54.4044H74.8559H51.4634V61.9569ZM63.4938 61.89V66.3012H59.0827H54.6715V61.89V57.4789H59.0827H63.4938V61.89ZM75.7916 58.8824V59.7513H73.6529H71.5141V60.5533V61.3553H73.2519H74.9896V62.1574V62.9594H73.2519H71.5141V63.7614V64.5635H73.6529H75.7916V65.4323V66.3012H72.6504H69.5091V62.2509C69.5091 60.0186 69.5492 58.1472 69.6026 58.1071C69.6427 58.0536 71.0597 58.0135 72.7439 58.0135H75.7916V58.8824ZM78.5987 60.2191V62.4247H78.9329C79.1869 62.4247 79.4141 62.1975 80.0157 61.3553L80.7642 60.286H81.7668H82.7693L82.2881 60.9543C82.0207 61.3152 81.593 61.9168 81.339 62.2777C81.085 62.6386 80.8712 62.9861 80.8712 63.0663C80.8712 63.1332 81.2855 63.8283 81.7801 64.5902C82.2747 65.3387 82.7292 66.0472 82.796 66.1274C82.8629 66.2611 82.649 66.3012 81.8871 66.3012H80.8712L80.136 65.165C79.481 64.1491 79.3607 64.0288 78.9998 64.0288H78.5987V65.165V66.3012H77.7299H76.861V62.1574V58.0135H77.7299H78.5987V60.2191ZM92.3669 59.6176V60.286H93.2358H94.1047V61.0212V61.7563H93.2358H92.3669V63.2936V64.8308H93.2358H94.1047V65.566V66.3012H92.3669H90.6292V64.0288V61.7563H90.2282C89.8272 61.7563 89.8272 61.743 89.8272 61.0212C89.8272 60.2993 89.8272 60.286 90.2282 60.286C90.6158 60.286 90.6292 60.2726 90.6292 59.6176V58.9492H91.4981H92.3669V59.6176ZM86.1111 60.1523C86.3918 60.2325 86.7928 60.4464 87.0201 60.6335L87.4211 60.9811V60.6335C87.4211 60.2993 87.4478 60.286 88.2899 60.286H89.1588V63.2936V66.3012H88.2899C87.4612 66.3012 87.4211 66.2878 87.4211 65.967V65.6462L87.0869 65.9536C86.5656 66.4482 85.6432 66.6487 84.8947 66.4482C83.5045 66.0739 82.7426 64.9511 82.7426 63.2802C82.7426 61.7296 83.4109 60.6736 84.6942 60.2191C85.3358 59.9919 85.4828 59.9785 86.1111 60.1523Z" fill="#ECECEC"/>
<path d="M85.0819 61.9167C84.3868 62.5183 84.3868 64.0689 85.0819 64.657C85.6032 65.1115 86.3918 65.0714 86.8864 64.5902C87.5949 63.8817 87.5414 62.4782 86.7929 61.9034C86.325 61.5157 85.5364 61.5291 85.0819 61.9167Z" fill="#ECECEC"/>
</svg>
