<svg width="30" height="30" viewBox="0 0 30 30" fill="none" xmlns="http://www.w3.org/2000/svg">
<path d="M24.4767 4.89551H4.89531C3.54909 4.89551 2.45987 5.99696 2.45987 7.34318L2.44763 22.0292C2.44763 23.3755 3.54909 24.4769 4.89531 24.4769H24.4767C25.8229 24.4769 26.9244 23.3755 26.9244 22.0292V7.34318C26.9244 5.99696 25.8229 4.89551 24.4767 4.89551ZM23.9872 10.0968L15.3346 15.5062C14.943 15.7509 14.429 15.7509 14.0374 15.5062L5.38484 10.0968C5.26213 10.0279 5.15466 9.93486 5.06896 9.82323C4.98325 9.71161 4.92108 9.58376 4.88622 9.44741C4.85136 9.31107 4.84452 9.16907 4.86613 9.03001C4.88773 8.89094 4.93733 8.75771 5.01192 8.63837C5.0865 8.51903 5.18453 8.41607 5.30006 8.33571C5.4156 8.25535 5.54623 8.19927 5.68407 8.17086C5.8219 8.14245 5.96406 8.14231 6.10196 8.17043C6.23985 8.19856 6.3706 8.25437 6.4863 8.33449L14.686 13.4624L22.8857 8.33449C23.0014 8.25437 23.1322 8.19856 23.2701 8.17043C23.408 8.14231 23.5501 8.14245 23.688 8.17086C23.8258 8.19927 23.9564 8.25535 24.072 8.33571C24.1875 8.41607 24.2855 8.51903 24.3601 8.63837C24.4347 8.75771 24.4843 8.89094 24.5059 9.03001C24.5275 9.16907 24.5207 9.31107 24.4858 9.44741C24.4509 9.58376 24.3888 9.71161 24.3031 9.82323C24.2174 9.93486 24.1099 10.0279 23.9872 10.0968Z" fill="white"/>
</svg>
