<svg width="30" height="30" viewBox="0 0 30 30" fill="none" xmlns="http://www.w3.org/2000/svg">
<g clip-path="url(#clip0_376_422)">
<path fill-rule="evenodd" clip-rule="evenodd" d="M20.2569 27.0873C18.4946 27.0224 13.5001 26.3322 8.26942 21.1027C3.03996 15.8721 2.35094 10.8788 2.28485 9.11525C2.18694 6.4277 4.24544 3.81725 6.62336 2.79779C6.9097 2.67415 7.22328 2.62707 7.53332 2.66118C7.84335 2.6953 8.13919 2.80943 8.3918 2.99238C10.3499 4.41938 11.7011 6.57823 12.8613 8.27569C13.1165 8.64863 13.2257 9.10245 13.1679 9.55068C13.1101 9.99891 12.8895 10.4102 12.548 10.7062L10.1602 12.4796C10.0449 12.5629 9.96369 12.6852 9.93173 12.8239C9.89977 12.9625 9.91921 13.1081 9.98646 13.2335C10.5274 14.2162 11.4893 15.6799 12.5908 16.7814C13.6935 17.8828 15.2257 18.9084 16.277 19.5105C16.4088 19.5845 16.5639 19.6052 16.7105 19.5683C16.8571 19.5315 16.984 19.4398 17.0651 19.3123L18.6194 16.9466C18.9052 16.567 19.3267 16.3127 19.7957 16.237C20.2648 16.1612 20.7449 16.2699 21.1356 16.5403C22.8576 17.7323 24.8671 19.0602 26.3382 20.9436C26.536 21.1981 26.6618 21.501 26.7025 21.8207C26.7432 22.1404 26.6972 22.4652 26.5695 22.761C25.5451 25.1512 22.953 27.1864 20.2569 27.0873Z" fill="white"/>
</g>
<defs>
<clipPath id="clip0_376_422">
<rect width="29.3721" height="29.3721" fill="white"/>
</clipPath>
</defs>
</svg>
