<svg width="30" height="30" viewBox="0 0 30 30" fill="none" xmlns="http://www.w3.org/2000/svg">
<g clip-path="url(#clip0_447_115)">
<path fill-rule="evenodd" clip-rule="evenodd" d="M24.2038 5.42159C24.5062 5.2943 24.8373 5.2504 25.1624 5.29445C25.4876 5.33851 25.795 5.46891 26.0526 5.67209C26.3103 5.87527 26.5088 6.14379 26.6275 6.44972C26.7461 6.75564 26.7806 7.08777 26.7274 7.41155L23.9517 24.2479C23.6824 25.8719 21.9005 26.8033 20.4111 25.9943C19.1653 25.3175 17.3148 24.2748 15.6504 23.1868C14.8182 22.6422 12.2689 20.8982 12.5822 19.6573C12.8515 18.5962 17.1349 14.6089 19.5826 12.2384C20.5433 11.307 20.1052 10.7698 18.9707 11.6264C16.1534 13.7535 11.6301 16.9881 10.1346 17.8986C8.81527 18.7015 8.12747 18.8385 7.30505 18.7015C5.80462 18.4518 4.41312 18.0651 3.2774 17.5939C1.74271 16.9575 1.81736 14.8476 3.27618 14.2332L24.2038 5.42159Z" fill="white"/>
</g>
<defs>
<clipPath id="clip0_447_115">
<rect width="29.3721" height="29.3721" fill="white"/>
</clipPath>
</defs>
</svg>
