<svg width="30" height="30" viewBox="0 0 30 30" fill="none" xmlns="http://www.w3.org/2000/svg">
<g clip-path="url(#clip0_447_131)">
<path fill-rule="evenodd" clip-rule="evenodd" d="M28.6969 7.27877C28.9001 6.6106 28.6969 6.11865 27.7241 6.11865H24.5117C23.6942 6.11865 23.3173 6.54329 23.113 7.01199C23.113 7.01199 21.4793 10.9231 19.1651 13.4636C18.4162 14.2003 18.076 14.434 17.6673 14.434C17.4629 14.434 17.1558 14.2003 17.1558 13.5309V7.27877C17.1558 6.47599 16.9306 6.11865 16.2502 6.11865H11.1985C10.6882 6.11865 10.3811 6.49067 10.3811 6.84434C10.3811 7.60428 11.5387 7.7805 11.6574 9.91962V14.5674C11.6574 15.5868 11.4702 15.7716 11.0615 15.7716C9.97234 15.7716 7.32292 11.8421 5.7504 7.34607C5.44569 6.47109 5.1373 6.11865 4.31617 6.11865H1.10137C0.183562 6.11865 0 6.54329 0 7.01199C0 7.84659 1.08914 11.9927 5.07244 17.4763C7.72798 21.221 11.4665 23.2512 14.8722 23.2512C16.9147 23.2512 17.1668 22.8008 17.1668 22.0237V19.1932C17.1668 18.2913 17.3601 18.1114 18.0075 18.1114C18.4847 18.1114 19.301 18.3464 21.2076 20.1514C23.3859 22.2917 23.7444 23.2512 24.9706 23.2512H28.183C29.1008 23.2512 29.5609 22.8008 29.2966 21.9099C29.0053 21.0239 27.9651 19.7378 26.586 18.2118C25.837 17.3429 24.7136 16.4067 24.3722 15.938C23.8962 15.3372 24.032 15.0692 24.3722 14.5344C24.3722 14.5344 28.2882 9.11806 28.6957 7.27877" fill="white"/>
</g>
<defs>
<clipPath id="clip0_447_131">
<rect width="29.37" height="29.37" fill="white"/>
</clipPath>
</defs>
</svg>
